<svg xmlns="http://www.w3.org/2000/svg" viewBox="0 0 96 96">
  <defs>
    <linearGradient id="cob" x1="0" y1="0" x2="0" y2="1">
      <stop offset="0" stop-color="#ffe66b"/>
      <stop offset=".55" stop-color="#ffbe38"/>
      <stop offset="1" stop-color="#e57b28"/>
    </linearGradient>
  </defs>
  <ellipse cx="48" cy="82" rx="30" ry="9" fill="#1b2d1c" opacity=".45"/>
  <path d="M26 71 C30 48 39 37 48 31 C57 37 66 48 70 71 C58 83 38 83 26 71Z" fill="#3db765" stroke="#126b39" stroke-width="4"/>
  <path d="M34 72 C39 48 44 26 48 18 C52 26 57 48 62 72 C54 78 42 78 34 72Z" fill="url(#cob)" stroke="#8a4d17" stroke-width="4"/>
  <g fill="#fff08a" opacity=".82">
    <circle cx="43" cy="31" r="3"/><circle cx="52" cy="31" r="3"/>
    <circle cx="41" cy="42" r="3"/><circle cx="50" cy="42" r="3"/><circle cx="59" cy="42" r="3"/>
    <circle cx="39" cy="53" r="3"/><circle cx="48" cy="53" r="3"/><circle cx="57" cy="53" r="3"/>
    <circle cx="41" cy="64" r="3"/><circle cx="50" cy="64" r="3"/><circle cx="59" cy="64" r="3"/>
  </g>
  <path d="M23 62 C33 60 42 66 46 78 C34 81 25 76 23 62Z" fill="#54ce6c" stroke="#126b39" stroke-width="3"/>
  <path d="M73 62 C63 60 54 66 50 78 C62 81 71 76 73 62Z" fill="#54ce6c" stroke="#126b39" stroke-width="3"/>
  <circle cx="43" cy="23" r="3" fill="#563211"/>
  <circle cx="53" cy="23" r="3" fill="#563211"/>
</svg>
