<svg xmlns="http://www.w3.org/2000/svg" viewBox="0 0 96 96">
  <defs>
    <linearGradient id="ice" x1="0" y1="0" x2="1" y2="1">
      <stop offset="0" stop-color="#ecfbff"/>
      <stop offset=".48" stop-color="#7ee8ff"/>
      <stop offset="1" stop-color="#346dff"/>
    </linearGradient>
  </defs>
  <ellipse cx="48" cy="82" rx="28" ry="9" fill="#102936" opacity=".45"/>
  <path d="M45 48 C36 55 37 67 41 78 L55 78 C60 65 56 55 51 48Z" fill="#47c675" stroke="#126b39" stroke-width="3"/>
  <path d="M30 69 C17 61 19 77 34 80 C43 82 50 73 45 68Z" fill="#55d988" stroke="#126b39" stroke-width="3"/>
  <path d="M66 69 C79 61 77 77 62 80 C53 82 46 73 51 68Z" fill="#55d988" stroke="#126b39" stroke-width="3"/>
  <path d="M48 10 L67 27 L61 58 L48 72 L35 58 L29 27 Z" fill="url(#ice)" stroke="#1747b8" stroke-width="4"/>
  <path d="M48 10 L49 72 M30 27 L61 58 M67 27 L35 58" stroke="#dffaff" stroke-width="3" opacity=".75"/>
  <circle cx="40" cy="37" r="3.5" fill="#092a56"/>
  <circle cx="56" cy="37" r="3.5" fill="#092a56"/>
  <path d="M39 49 C44 54 52 54 57 49" fill="none" stroke="#092a56" stroke-width="3" stroke-linecap="round"/>
</svg>
