<svg xmlns="http://www.w3.org/2000/svg" viewBox="0 0 96 96">
  <defs>
    <radialGradient id="leaf" cx="35%" cy="28%" r="72%">
      <stop offset="0" stop-color="#b7ff78"/>
      <stop offset="0.58" stop-color="#54d862"/>
      <stop offset="1" stop-color="#158a44"/>
    </radialGradient>
    <linearGradient id="stem" x1="0" y1="0" x2="0" y2="1">
      <stop offset="0" stop-color="#8eff77"/>
      <stop offset="1" stop-color="#1f8f4d"/>
    </linearGradient>
  </defs>
  <ellipse cx="48" cy="82" rx="28" ry="9" fill="#1b2d1c" opacity=".45"/>
  <path d="M43 42 C31 44 28 58 31 75 L42 75 C38 61 41 51 49 48Z" fill="url(#stem)" stroke="#0d5a2f" stroke-width="3"/>
  <path d="M39 62 C20 52 15 67 29 75 C39 81 49 75 46 67Z" fill="#3dc35e" stroke="#126b39" stroke-width="3"/>
  <path d="M55 64 C75 55 80 70 65 78 C55 83 45 76 49 68Z" fill="#44d36a" stroke="#126b39" stroke-width="3"/>
  <circle cx="47" cy="33" r="24" fill="url(#leaf)" stroke="#0d6837" stroke-width="4"/>
  <ellipse cx="67" cy="31" rx="19" ry="13" fill="#78f36d" stroke="#0d6837" stroke-width="4"/>
  <circle cx="38" cy="27" r="4" fill="#0c3325"/>
  <circle cx="52" cy="26" r="4" fill="#0c3325"/>
  <path d="M38 42 C43 47 51 47 56 42" fill="none" stroke="#0c3325" stroke-width="3" stroke-linecap="round"/>
  <circle cx="78" cy="31" r="7" fill="#d9ffc6" opacity=".9"/>
</svg>
